<svg xmlns="http://www.w3.org/2000/svg" width="400" height="400" viewBox="0 0 400 400" version="1.1"><path d="M 185.500 37.129 C 172.180 37.967, 163.507 40.008, 156.384 43.982 C 149.486 47.831, 120.308 76.657, 110 89.807 C 90.388 114.828, 73.324 151.893, 67.526 182.066 C 65.317 193.566, 65.339 246.823, 67.561 263.881 C 69.573 279.327, 73.288 295.761, 78.195 310.917 C 82.576 324.450, 96.097 352.164, 102.510 360.753 L 106.355 365.903 109.277 364.202 C 114.907 360.924, 136.062 337.486, 139.825 330.357 C 140.767 328.572, 140.518 327.570, 138.337 324.357 C 128.622 310.046, 118.327 289.630, 113.702 275.500 C 110.634 266.128, 106 247.949, 106 245.288 C 106 243.073, 106.116 243.024, 134 233.483 C 174.406 219.657, 192.500 213.255, 201.500 209.600 C 212.798 205.012, 247.829 194.496, 248.750 195.416 C 249.648 196.315, 256.151 233.911, 259.002 254.693 C 263.134 284.809, 267.861 311.267, 274.064 339 C 276.011 347.704, 281 371.941, 281 372.694 C 281 372.925, 282.387 372.300, 284.083 371.307 C 291.221 367.123, 314.260 340.797, 315.658 335.226 C 315.990 333.904, 315.777 331.175, 315.185 329.161 C 313.796 324.439, 309.230 303.199, 306.981 291 C 306.018 285.775, 304.753 279.700, 304.170 277.500 C 302.370 270.703, 297.179 239.458, 294.534 219.500 C 293.149 209.050, 291.044 195.034, 289.855 188.354 L 287.693 176.207 294.418 167.854 C 301.464 159.102, 304.536 154.203, 303.579 153.245 C 303.266 152.932, 299.070 153.264, 294.255 153.982 C 289.440 154.700, 285.079 155.336, 284.565 155.394 C 284.051 155.452, 282.671 151.225, 281.499 146 C 278.427 132.304, 272.907 116.068, 264.332 95.500 C 254.804 72.646, 251.776 67.595, 240.792 56.225 C 235.811 51.069, 222.991 42.575, 215.336 39.358 C 210.343 37.260, 198.037 36.340, 185.500 37.129 M 148 75.658 C 130.165 78.263, 128.686 78.939, 124.554 86.382 C 114.473 104.540, 104.776 132.600, 101.985 151.691 C 100.712 160.397, 101.163 220.935, 102.541 226.329 L 103.263 229.158 107.382 225.198 C 119.404 213.636, 135.109 205.533, 166 194.954 C 210.892 179.580, 220.683 176.123, 231 172.010 C 236.775 169.707, 241.659 167.666, 241.853 167.475 C 243.103 166.244, 227.877 127.368, 220.909 114 C 211.511 95.966, 190.967 79.185, 174.493 76.086 C 169.659 75.177, 153.126 74.910, 148 75.658" stroke="none" fill="#040c0c" fill-rule="evenodd"/><path d="M -0 200.002 L -0 400.005 200.250 399.752 L 400.500 399.500 400.752 199.750 L 401.005 0 200.502 0 L 0 0 -0 200.002 M 0.490 200.500 C 0.490 310.500, 0.607 355.352, 0.750 300.170 C 0.893 244.989, 0.893 154.989, 0.750 100.170 C 0.607 45.352, 0.490 90.500, 0.490 200.500 M 185.500 37.129 C 172.180 37.967, 163.507 40.008, 156.384 43.982 C 149.486 47.831, 120.308 76.657, 110 89.807 C 90.388 114.828, 73.324 151.893, 67.526 182.066 C 65.317 193.566, 65.339 246.823, 67.561 263.881 C 69.573 279.327, 73.288 295.761, 78.195 310.917 C 82.576 324.450, 96.097 352.164, 102.510 360.753 L 106.355 365.903 109.277 364.202 C 114.907 360.924, 136.062 337.486, 139.825 330.357 C 140.767 328.572, 140.518 327.570, 138.337 324.357 C 128.622 310.046, 118.327 289.630, 113.702 275.500 C 110.634 266.128, 106 247.949, 106 245.288 C 106 243.073, 106.116 243.024, 134 233.483 C 174.406 219.657, 192.500 213.255, 201.500 209.600 C 212.798 205.012, 247.829 194.496, 248.750 195.416 C 249.648 196.315, 256.151 233.911, 259.002 254.693 C 263.134 284.809, 267.861 311.267, 274.064 339 C 276.011 347.704, 281 371.941, 281 372.694 C 281 372.925, 282.387 372.300, 284.083 371.307 C 291.221 367.123, 314.260 340.797, 315.658 335.226 C 315.990 333.904, 315.777 331.175, 315.185 329.161 C 313.796 324.439, 309.230 303.199, 306.981 291 C 306.018 285.775, 304.753 279.700, 304.170 277.500 C 302.370 270.703, 297.179 239.458, 294.534 219.500 C 293.149 209.050, 291.044 195.034, 289.855 188.354 L 287.693 176.207 294.418 167.854 C 301.464 159.102, 304.536 154.203, 303.579 153.245 C 303.266 152.932, 299.070 153.264, 294.255 153.982 C 289.440 154.700, 285.079 155.336, 284.565 155.394 C 284.051 155.452, 282.671 151.225, 281.499 146 C 278.427 132.304, 272.907 116.068, 264.332 95.500 C 254.804 72.646, 251.776 67.595, 240.792 56.225 C 235.811 51.069, 222.991 42.575, 215.336 39.358 C 210.343 37.260, 198.037 36.340, 185.500 37.129 M 148 75.658 C 130.165 78.263, 128.686 78.939, 124.554 86.382 C 114.473 104.540, 104.776 132.600, 101.985 151.691 C 100.712 160.397, 101.163 220.935, 102.541 226.329 L 103.263 229.158 107.382 225.198 C 119.404 213.636, 135.109 205.533, 166 194.954 C 210.892 179.580, 220.683 176.123, 231 172.010 C 236.775 169.707, 241.659 167.666, 241.853 167.475 C 243.103 166.244, 227.877 127.368, 220.909 114 C 211.511 95.966, 190.967 79.185, 174.493 76.086 C 169.659 75.177, 153.126 74.910, 148 75.658" stroke="none" fill="#fbfbfb" fill-rule="evenodd"/></svg>